<mxfile host="app.diagrams.net" modified="2020-10-31T15:18:12.813Z" agent="5.0 (Windows NT 10.0; Win64; x64) AppleWebKit/537.36 (KHTML, like Gecko) Chrome/86.0.4240.111 Safari/537.36" etag="FRCsGhQCYAFiAjrdhdWx" version="13.8.8" type="github">
  <diagram name="Page-1" id="e7e014a7-5840-1c2e-5031-d8a46d1fe8dd">
    <mxGraphModel dx="1447" dy="803" grid="0" gridSize="10" guides="1" tooltips="1" connect="1" arrows="1" fold="1" page="1" pageScale="1" pageWidth="1169" pageHeight="826" background="#ffffff" math="0" shadow="0">
      <root>
        <mxCell id="0" />
        <mxCell id="1" parent="0" />
        <mxCell id="tQs_NV-hST4JglMiyjqm-44" value="&lt;ul style=&quot;box-sizing: border-box ; padding: 0px 0px 0px 1em ; margin: 1em 0px 0px ; line-height: 1.4em ; color: rgb(49 , 49 , 49) ; list-style-position: outside ; list-style-image: none ; font-family: , , &amp;#34;blinkmacsystemfont&amp;#34; , &amp;#34;segoe ui&amp;#34; , &amp;#34;roboto&amp;#34; , &amp;#34;helvetica neue&amp;#34; , &amp;#34;arial&amp;#34; , sans-serif ; font-size: 16px ; text-align: left ; background-color: rgb(255 , 255 , 255)&quot;&gt;&lt;li style=&quot;box-sizing: border-box ; line-height: 1.4em ; margin-bottom: 0.70788em&quot;&gt;Store manager&lt;/li&gt;&lt;/ul&gt;" style="shape=umlActor;verticalLabelPosition=bottom;verticalAlign=top;html=1;" vertex="1" parent="1">
          <mxGeometry x="70" y="320" width="30" height="60" as="geometry" />
        </mxCell>
        <mxCell id="tQs_NV-hST4JglMiyjqm-45" value="&lt;ul style=&quot;box-sizing: border-box ; padding: 0px 0px 0px 1em ; margin: 1em 0px 0px ; line-height: 1.4em ; color: rgb(49 , 49 , 49) ; list-style-position: outside ; list-style-image: none ; font-family: , , &amp;#34;blinkmacsystemfont&amp;#34; , &amp;#34;segoe ui&amp;#34; , &amp;#34;roboto&amp;#34; , &amp;#34;helvetica neue&amp;#34; , &amp;#34;arial&amp;#34; , sans-serif ; font-size: 16px ; text-align: left ; background-color: rgb(255 , 255 , 255)&quot;&gt;&lt;li style=&quot;box-sizing: border-box ; line-height: 1.4em ; margin-bottom: 0.70788em&quot;&gt;Delivery man&lt;/li&gt;&lt;/ul&gt;" style="shape=umlActor;verticalLabelPosition=bottom;verticalAlign=top;html=1;" vertex="1" parent="1">
          <mxGeometry x="70" y="570" width="30" height="60" as="geometry" />
        </mxCell>
        <mxCell id="tQs_NV-hST4JglMiyjqm-50" value="&lt;ul style=&quot;box-sizing: border-box ; padding: 0px 0px 0px 1em ; margin: 1em 0px 0px ; line-height: 1.4em ; color: rgb(49 , 49 , 49) ; list-style-position: outside ; list-style-image: none ; font-family: , , &amp;#34;blinkmacsystemfont&amp;#34; , &amp;#34;segoe ui&amp;#34; , &amp;#34;roboto&amp;#34; , &amp;#34;helvetica neue&amp;#34; , &amp;#34;arial&amp;#34; , sans-serif ; font-size: 16px ; text-align: left ; background-color: rgb(255 , 255 , 255)&quot;&gt;&lt;li style=&quot;box-sizing: border-box ; line-height: 1.4em ; margin-bottom: 0.70788em&quot;&gt;Customer&lt;/li&gt;&lt;/ul&gt;" style="shape=umlActor;verticalLabelPosition=bottom;verticalAlign=top;html=1;" vertex="1" parent="1">
          <mxGeometry x="70" y="90" width="30" height="60" as="geometry" />
        </mxCell>
        <mxCell id="tQs_NV-hST4JglMiyjqm-52" value="&lt;span style=&quot;color: rgb(49 , 49 , 49) ; font-family: , , &amp;#34;blinkmacsystemfont&amp;#34; , &amp;#34;segoe ui&amp;#34; , &amp;#34;roboto&amp;#34; , &amp;#34;helvetica neue&amp;#34; , &amp;#34;arial&amp;#34; , sans-serif ; text-align: left ; background-color: rgb(255 , 255 , 255)&quot;&gt;&lt;font style=&quot;font-size: 18px&quot;&gt;Login/Register&lt;/font&gt;&lt;/span&gt;" style="ellipse;whiteSpace=wrap;html=1;" vertex="1" parent="1">
          <mxGeometry x="434" y="47" width="198" height="65" as="geometry" />
        </mxCell>
        <mxCell id="tQs_NV-hST4JglMiyjqm-54" value="" style="endArrow=none;html=1;entryX=0.5;entryY=0.5;entryDx=0;entryDy=0;entryPerimeter=0;" edge="1" parent="1" source="tQs_NV-hST4JglMiyjqm-52" target="tQs_NV-hST4JglMiyjqm-50">
          <mxGeometry width="50" height="50" relative="1" as="geometry">
            <mxPoint x="446" y="385" as="sourcePoint" />
            <mxPoint x="496" y="335" as="targetPoint" />
          </mxGeometry>
        </mxCell>
        <mxCell id="tQs_NV-hST4JglMiyjqm-56" value="&lt;span style=&quot;font-size: 18px&quot;&gt;View Items&lt;/span&gt;" style="ellipse;whiteSpace=wrap;html=1;" vertex="1" parent="1">
          <mxGeometry x="439" y="163" width="172" height="60" as="geometry" />
        </mxCell>
        <mxCell id="tQs_NV-hST4JglMiyjqm-58" value="&lt;font style=&quot;font-size: 18px&quot;&gt;Make Purchase&lt;/font&gt;" style="ellipse;whiteSpace=wrap;html=1;" vertex="1" parent="1">
          <mxGeometry x="439" y="289" width="172" height="47" as="geometry" />
        </mxCell>
        <mxCell id="tQs_NV-hST4JglMiyjqm-59" value="&lt;font style=&quot;font-size: 18px&quot;&gt;Complete &lt;br&gt;Checkout&lt;/font&gt;" style="ellipse;whiteSpace=wrap;html=1;" vertex="1" parent="1">
          <mxGeometry x="439" y="402" width="172" height="60" as="geometry" />
        </mxCell>
        <mxCell id="tQs_NV-hST4JglMiyjqm-64" value="&amp;lt;&amp;lt;include&amp;gt;&amp;gt;" style="edgeStyle=none;html=1;endArrow=open;verticalAlign=bottom;dashed=1;labelBackgroundColor=none;entryX=0.5;entryY=1;entryDx=0;entryDy=0;exitX=0.5;exitY=0;exitDx=0;exitDy=0;" edge="1" parent="1" source="tQs_NV-hST4JglMiyjqm-58" target="tQs_NV-hST4JglMiyjqm-56">
          <mxGeometry width="160" relative="1" as="geometry">
            <mxPoint x="456" y="387" as="sourcePoint" />
            <mxPoint x="616" y="387" as="targetPoint" />
          </mxGeometry>
        </mxCell>
        <mxCell id="tQs_NV-hST4JglMiyjqm-65" value="&amp;lt;&amp;lt;include&amp;gt;&amp;gt;" style="edgeStyle=none;html=1;endArrow=open;verticalAlign=bottom;dashed=1;labelBackgroundColor=none;entryX=0.5;entryY=0;entryDx=0;entryDy=0;exitX=0.5;exitY=1;exitDx=0;exitDy=0;" edge="1" parent="1" source="tQs_NV-hST4JglMiyjqm-58" target="tQs_NV-hST4JglMiyjqm-59">
          <mxGeometry width="160" relative="1" as="geometry">
            <mxPoint x="456" y="384" as="sourcePoint" />
            <mxPoint x="616" y="384" as="targetPoint" />
          </mxGeometry>
        </mxCell>
      </root>
    </mxGraphModel>
  </diagram>
</mxfile>
